<svg xmlns="http://www.w3.org/2000/svg" xmlns:xlink="http://www.w3.org/1999/xlink" width="1920" height="1080" viewBox="0 0 1920 1080"><defs><clipPath id="b"><rect width="1920" height="1080"/></clipPath></defs><g id="a" clip-path="url(#b)"><g transform="translate(-2149.916 -1587.93)" opacity="0.5" style="isolation:isolate"><path d="M64.708,1332.567c-300.43,237.53,514.767,855.049,650.981,967.639,595.619,492.364,1524.053,1036.858,2319.719,708.639,439.3-181.091,747.629-580.755,1007.49-964.407,292.244-431.474,537.242-905.815,875.585-1299.52,355.576-413.738,832-737.505,1395.594-734.777C6855.7,12.727,7369.677,220.888,7875.253,406.5" transform="translate(735.74 0)" fill="none" stroke="#b7b7b7" opacity="0.5" stroke-linecap="round" stroke-miterlimit="10" stroke-width="2"/><path d="M53.74,1317.455c-172.187,136.932,106.271,397.3,191.79,491.359C394.6,1972.744,566.138,2123.174,739.4,2263.05c220.584,178.075,460.626,339.564,709.142,472.187C1935.6,2995.313,2516.351,3173.1,3049.356,2973.484c432.623-161.991,748.707-560.291,1011.081-936.188,295.692-423.5,543.7-888.941,880.827-1278.409,73.313-84.729,151-168.31,232.431-243.059,323.91-297.271,713.091-485.974,1158.854-504.5,20.823-.862,42.508-1.077,63.476-.718,516.347,9.047,1009.789,204.5,1494.182,383.724" transform="translate(727.679 22.652)" fill="none" stroke="#b7b7b7" opacity="0.5" stroke-linecap="round" stroke-miterlimit="10" stroke-width="2"/><path d="M42.293,1302.17C-114.1,1433.141,193.3,1704.563,264.241,1779.455c151.938,160.34,324.341,308.4,498.324,446.337,220.727,174.916,459.836,334.107,707.06,465.366,484.825,257.491,1060.985,436.572,1593.128,247.008,430.4-153.375,749.927-539.755,1014.815-908.113,298.779-415.533,550.239-872.713,886-1257.083,73.528-84.155,151.221-167.233,232.5-241.838,323.264-296.7,710.076-492.22,1154.475-518.573,20.751-1.221,42.364-1.8,63.188-1.8,515.2.287,1008.5,191.575,1490.95,371.373" transform="translate(720.099 45.261)" fill="none" stroke="#b7b7b7" opacity="0.5" stroke-linecap="round" stroke-miterlimit="10" stroke-width="2"/><path d="M31.915,1287.183c-137.649,126.663,188.918,399.52,252.178,463.355,155.242,156.606,328,302.226,502.776,438.3,220.871,171.829,458.975,328.722,704.834,458.544,482.814,255.05,1054.235,435.351,1585.661,255.84,903.517-305.241,1312.229-1438.1,1909.715-2115.579,73.743-83.581,151.508-166.156,232.575-240.617C5542.344,250.755,5926.713,48.482,6369.676,14.3c20.608-1.652,42.149-2.585,62.973-2.944,513.834-8.545,1006.988,178.65,1487.72,359.167" transform="translate(711.377 67.428)" fill="none" stroke="#b7b7b7" opacity="0.5" stroke-linecap="round" stroke-miterlimit="10" stroke-width="2"/><path d="M22.425,1272.475c-116.9,123.073,225.036,394.207,282.407,449.641,158.545,152.872,331.881,296.983,507.3,430.109,221.014,167.736,457.97,323.121,702.68,451.867,480.3,252.68,1046.767,433.843,1578.049,264.743,426.16-135.71,752.153-498.97,1022.282-851.243,306.39-399.593,567.4-840.186,896.481-1214.718,72.882-82.863,151.723-165.007,232.646-239.325,322.115-295.907,704.044-504.93,1145.5-547.007,20.608-1.939,42.006-3.3,62.758-4.021C6965-4.785,7458.006,178.245,7936.943,359.336" transform="translate(701.695 89.029)" fill="none" stroke="#b7b7b7" opacity="0.5" stroke-linecap="round" stroke-miterlimit="10" stroke-width="2"/><path d="M10.891,1258.191c-80.278,138.08,241.982,370.655,312.709,435.854,161.632,149.066,335.471,290.809,511.68,422,221.086,164.648,457.108,317.664,700.526,445.045,463.068,242.34,1042.675,444.04,1570.51,273.791C3535.2,2696.509,3859.546,2356.657,4132.331,2012c309.55-391.191,574.006-823.742,901.794-1193.177,73.1-82.36,152.01-164,232.791-238.176,321.613-295.62,701.1-511.321,1140.974-561.3,20.465-2.3,41.791-4.093,62.471-5.1C6981.394-11.961,7474.189,166.9,7951.546,348.714" transform="translate(694.057 110.135)" fill="none" stroke="#b7b7b7" opacity="0.5" stroke-linecap="round" stroke-miterlimit="10" stroke-width="2"/><path d="M3.931,1244.217c-53.566,139.445,269.411,357.515,342.939,422.355C511.59,1811.76,686,1950.989,862.93,2080.237c221.23,161.632,456.318,312.422,698.371,438.367,477.07,248.156,1033.34,431.259,1563.042,282.91,886.285-248.3,1359.405-1321.995,1937-1966.154,73.313-81.785,152.154-162.853,232.79-236.955C5615.389,303,5992.363,80.695,6430.587,22.749c20.32-2.729,41.646-4.811,62.182-6.247,509.526-35.112,1002.177,139.66,1477.954,322.187" transform="translate(681.845 130.643)" fill="none" stroke="#b7b7b7" opacity="0.5" stroke-linecap="round" stroke-miterlimit="10" stroke-width="2"/><path d="M-.842,1230.533c-24.988,142.1,293.035,341.287,373.24,408.927,167.664,141.311,342.723,278.027,520.44,405.337,221.23,158.544,455.385,306.964,696.217,431.545,475.2,245.931,1026.878,430.4,1555.575,292.173,882.981-230.852,1370.678-1280.635,1946.192-1916.034,73.528-81.283,152.442-161.776,232.862-235.806C5644.58,321.415,6018.969,92.5,6455.54,26.585c20.25-3.088,41.432-5.6,61.9-7.324,508.018-44.016,1000.381,126.52,1474.65,309.837" transform="translate(667.374 150.718)" fill="none" stroke="#b7b7b7" opacity="0.5" stroke-linecap="round" stroke-miterlimit="10" stroke-width="2"/><path d="M-2.45,1217.133c-3.949,140.593,313,322.69,403.614,395.571,170.68,137.362,346.242,271.565,524.748,396.936,221.374,155.457,454.595,301.58,694.063,424.868,473.479,243.777,1020.487,429.536,1548.107,301.508,880.109-213.475,1381.449-1238.63,1955.455-1865.843,73.887-80.708,152.728-160.771,232.934-234.586,320.679-295.332,692.483-530.78,1127.26-604.667,20.177-3.375,41.288-6.319,61.68-8.4C7051.706-30.472,7543.926,135.9,8016.76,319.934" transform="translate(649.667 170.293)" fill="none" stroke="#b7b7b7" opacity="0.5" stroke-linecap="round" stroke-miterlimit="10" stroke-width="2"/><path d="M-2.755,1203.975c11.776,55.936,64.624,89.828,105.625,125.514,104.548,90.976,218.645,172.619,328.362,256.917,173.408,133.341,349.688,265.031,529.056,388.463,221.445,152.3,453.662,296.122,691.909,418.118,471.684,241.623,1014.168,428.745,1540.711,310.986,877.6-196.314,1391.358-1195.331,1964.79-1815.58,74.1-80.134,152.872-159.693,232.935-233.437,320.536-295.332,689.754-537.386,1122.592-619.171,20.106-3.806,41.144-7.109,61.394-9.55C7079.261-35.731,7571.194,126.475,8042.735,311.3" transform="translate(630.657 189.411)" fill="none" stroke="#b7b7b7" opacity="0.5" stroke-linecap="round" stroke-miterlimit="10" stroke-width="2"/><path d="M-3.025,1191.04c24.7,52.776,78.626,85.3,123.791,119.7,111.872,85.3,227.19,166.515,340.569,249.736C637.257,1689.651,814.542,1818.9,994.7,1940.321c221.517,149.21,452.8,290.737,689.755,411.512,470.1,239.541,1007.993,427.955,1533.315,320.464,874.724-179.009,1401.77-1152.535,1974.2-1765.172,74.39-79.56,153.16-158.545,233.006-232.288C5745.364,379.361,6111.927,130.845,6542.9,41.018c19.962-4.165,40.929-7.755,61.106-10.627C7106.852-40.552,7598.5,117.418,8068.746,303.1" transform="translate(611.539 208.09)" fill="none" stroke="#b7b7b7" opacity="0.5" stroke-linecap="round" stroke-miterlimit="10" stroke-width="2"/><path d="M-3.3,1178.375c111.728,148.348,345.811,252.034,494.806,356.51,178.147,124.868,356.582,251.747,537.673,371.158,221.517,146.122,451.938,285.351,687.529,404.834,468.525,237.53,1000.525,426.448,1525.991,330.157C4114.841,2481.2,4657.325,1529.069,5226.377,926.413c74.6-79.057,153.374-157.539,233.077-231.139,320.393-295.763,684.155-550.741,1113.188-648.539,19.889-4.524,40.713-8.545,60.818-11.776C7134.44-44.96,7625.8,108.774,8094.9,295.25" transform="translate(592.351 226.356)" fill="none" stroke="#b7b7b7" opacity="0.5" stroke-linecap="round" stroke-miterlimit="10" stroke-width="2"/><path d="M-3.566,1165.857c147.63,137.649,358.3,232.144,525.179,343.729,180.23,120.488,360.028,245,541.909,362.4,221.589,142.963,451.077,280.037,685.447,398.228,467.448,235.591,994.71,425.37,1518.6,339.851,867.614-141.6,1426.039-1069.53,1993.151-1664,74.892-78.482,153.662-156.462,233.15-229.918C5814.33,420.022,6175.292,158.653,6602.313,52.813c19.819-4.883,40.57-9.335,60.6-12.853,499.042-88.966,990.042,60.46,1458.064,247.869" transform="translate(573.234 244.26)" fill="none" stroke="#b7b7b7" opacity="0.5" stroke-linecap="round" stroke-miterlimit="10" stroke-width="2"/><path d="M-3.838,1153.533c171.9,124.94,376.9,216.85,555.7,331.091,181.953,116.323,363.4,238.248,546.146,353.566,221.517,139.875,450.143,274.653,683.221,391.551,466.012,233.8,988.821,425.011,1511.343,349.76C4157.6,2454.992,4728.229,1554.347,5295.342,966.267c75.179-77.908,153.8-155.385,233.149-228.769,320.608-296.625,678.7-564.384,1103.637-678.123,19.745-5.314,40.425-10.124,60.315-14.074,497.032-97.941,987.672,47.176,1454.762,235.447" transform="translate(553.975 261.753)" fill="none" stroke="#b7b7b7" opacity="0.5" stroke-linecap="round" stroke-miterlimit="10" stroke-width="2"/><path d="M-4.11,1141.325c195.021,107.994,396.218,202.776,586.141,318.6,183.892,112.087,366.706,231.354,550.382,344.662C1354,1941.3,1581.623,2073.78,1813.48,2189.529c464.576,231.929,983.005,424.652,1504.091,359.741,862.517-107.491,1444.924-980.348,2012.4-1562.325,75.467-77.405,154.021-154.38,233.222-227.764C5884.011,462.054,6239.157,187.976,6662.014,66.2c19.6-5.673,40.211-10.842,60.029-15.151C7216.992-55.945,7707.273,84.792,8173.429,274" transform="translate(534.716 278.915)" fill="none" stroke="#b7b7b7" opacity="0.5" stroke-linecap="round" stroke-miterlimit="10" stroke-width="2"/><path d="M-4.383,1129.282c211.967,92.125,417.831,190.641,616.73,306.175,185.615,107.85,369.865,224.461,554.547,335.687,221.589,133.556,448.276,263.81,678.912,378.338,463.211,230.206,977.261,424.437,1496.767,369.794,860.291-90.474,1453.685-934.465,2022.161-1511.343,75.682-76.831,153.805-153.3,233.293-226.615C5920.79,483.615,6271.268,203.146,6691.971,73.4c19.459-6.032,40-11.632,59.742-16.3,492.723-115.964,982.646,20.321,1448.01,210.531" transform="translate(515.387 295.769)" fill="none" stroke="#b7b7b7" opacity="0.5" stroke-linecap="round" stroke-miterlimit="10" stroke-width="2"/><path d="M-4.656,1117.387c225.251,79.7,439.731,179.224,647.247,293.968,187.338,103.614,373.025,217.424,558.712,326.567,221.661,130.325,447.486,258.281,676.759,371.8,461.7,228.482,971.732,424.294,1489.586,379.918,857.706-73.456,1462.516-888.8,2031.855-1460.29,76.041-76.256,154.164-152.226,233.365-225.466,322.9-298.492,670.512-585.207,1089.061-723,19.387-6.391,39.78-12.35,59.454-17.377,490.5-125.012,979.989,6.821,1444.637,198.037" transform="translate(496.057 312.26)" fill="none" stroke="#b7b7b7" opacity="0.5" stroke-linecap="round" stroke-miterlimit="10" stroke-width="2"/><path d="M-4.93,1105.552c236.883,68.358,461.632,168.023,677.764,281.833,189.205,99.521,376.256,210.315,562.876,317.448,221.733,127.166,446.553,252.9,674.6,365.2,460.555,226.831,973.455,430.4,1482.406,390.258C4244.969,2393.008,4852,1629.438,5434.412,1051.2c76.329-75.754,154.452-151.221,233.437-224.389C5990.97,527.381,6335.7,234.49,6751.955,88.727c19.315-6.75,39.636-13.14,59.239-18.526,488.127-133.987,977.188-6.678,1441.19,185.543" transform="translate(476.657 328.475)" fill="none" stroke="#b7b7b7" opacity="0.5" stroke-linecap="round" stroke-miterlimit="10" stroke-width="2"/><path d="M-5.2,1093.773c247.582,59.167,483.245,157.252,708.352,269.842,190.785,95.428,379.272,203.207,566.969,308.185,221.733,124.007,445.62,247.511,672.45,358.736,459.477,225.179,967.782,430.469,1475.225,400.6,849.879-50.12,1467.83-784.681,2051.6-1357.753,76.616-75.179,154.667-150.143,233.437-223.312,323.479-300.358,665.2-599.5,1079.223-753.23,19.172-7.109,39.421-13.93,58.879-19.674,485.759-142.891,974.389-20.249,1437.888,173.049" transform="translate(457.256 344.419)" fill="none" stroke="#b7b7b7" opacity="0.5" stroke-linecap="round" stroke-miterlimit="10" stroke-width="2"/><path d="M-5.479,1082.063c257.779,51.987,504.212,146.553,738.941,257.994,192.508,91.407,382.359,196.026,571.134,298.922,221.661,120.847,444.614,242.053,670.3,352.2,458.4,223.672,962.4,430.9,1468.117,411.01,847.222-33.246,1475.656-737.577,2061.51-1306.27,76.9-74.677,154.954-149.138,233.437-222.235,323.91-301.508,662.54-606.749,1074.2-768.453,19.1-7.468,39.277-14.648,58.664-20.752C7354.061-67.457,7842.189,50.59,8305.258,244.965" transform="translate(437.785 360.078)" fill="none" stroke="#b7b7b7" opacity="0.5" stroke-linecap="round" stroke-miterlimit="10" stroke-width="2"/><path d="M-5.754,1070.478c267.544,46.1,524.963,136.214,769.6,246.29,194.016,87.243,385.447,188.918,575.155,289.516,221.374,117.472,443.609,236.668,668.142,345.667,458.042,222.379,956.581,430.828,1460.937,421.637,844.135-15.438,1483.7-690.473,2071.563-1254.785q115.893-111.154,233.508-221.158c324.126-302.513,659.526-614.36,1069.171-783.676,19.028-7.9,39.062-15.438,58.377-21.972,480.66-160.842,968.285-47.535,1430.993,147.989" transform="translate(418.314 375.469)" fill="none" stroke="#b7b7b7" opacity="0.5" stroke-linecap="round" stroke-miterlimit="10" stroke-width="2"/><path d="M-6.03,1058.875c277.238,41.431,545.5,126.3,800.19,234.657,195.6,83.15,388.678,181.738,579.248,280.038,221.086,114.169,442.675,231.283,665.988,339.2,457.108,220.943,951.267,431.258,1453.9,432.264,841.622,1.723,1491.382-642.938,2081.687-1203.086q116.216-110.292,233.509-220.081c324.7-303.805,656.8-621.684,1064.073-799.042,18.957-8.257,38.846-16.228,58.161-23.049C7408.657-69.965,7895.779,38.532,8358.273,235.2" transform="translate(398.772 390.662)" fill="none" stroke="#b7b7b7" opacity="0.5" stroke-linecap="round" stroke-miterlimit="10" stroke-width="2"/><path d="M-6.307,1047.313c286.644,37.7,565.964,116.682,830.923,223.169,197.175,79.272,391.766,174.485,583.269,270.56,220.8,110.794,441.67,225.753,663.834,332.67,456.175,219.578,946.313,432.12,1446.863,443.106,838.965,18.382,1498.562-594.758,2091.74-1151.315q116.754-109.538,233.581-219.076c325.346-305.17,654.14-629.152,1059.046-814.408,18.813-8.617,38.631-17.018,57.8-24.2,475.274-178.65,961.822-75.036,1424.1,122.858" transform="translate(379.159 405.599)" fill="none" stroke="#b7b7b7" opacity="0.5" stroke-linecap="round" stroke-miterlimit="10" stroke-width="2"/><path d="M-6.584,1035.822c296.05,34.825,586.141,107.563,861.655,211.824,198.611,75.179,394.782,167.089,587.218,260.866,220.512,107.42,440.665,220.368,661.679,326.28,455.457,218.214,941.286,432.838,1439.826,453.949,836.379,35.4,1506.316-547.438,2102.008-1099.472q117.077-108.461,233.581-218c325.849-306.462,651.412-636.62,1053.876-829.918,18.741-8.976,38.487-17.736,57.587-25.275,472.4-187.482,958.447-88.894,1420.583,110.292" transform="translate(359.546 420.321)" fill="none" stroke="#b7b7b7" opacity="0.5" stroke-linecap="round" stroke-miterlimit="10" stroke-width="2"/><path d="M-6.861,1024.321c305.17,31.378,606.677,99.018,892.316,200.55,200.048,71.158,397.8,159.765,591.239,251.244,220.153,104.045,439.588,214.911,659.525,319.818,454.667,216.922,936.332,433.7,1432.861,464.863,833.579,52.417,1513.641-499.688,2112.2-1047.414q117.508-107.491,233.652-216.993c326.28-307.755,648.682-644.231,1048.706-845.427,18.669-9.335,38.272-18.454,57.228-26.424,469.531-196.242,955-102.824,1417.207,97.726" transform="translate(339.933 434.838)" fill="none" stroke="#b7b7b7" opacity="0.5" stroke-linecap="round" stroke-miterlimit="10" stroke-width="2"/><path d="M-7.14,1012.782c314.648,30.014,626.782,90.761,923.12,189.493,201.412,67.065,400.813,152.3,595.188,241.407,219.794,100.742,438.583,209.454,657.371,313.427,454.021,215.63,931.737,434.993,1425.9,475.993,830.42,68.861,1520.677-451.579,2122.543-995.355,78.554-71.015,156.75-143.178,233.653-215.988,326.926-309.191,645.954-651.842,1043.535-860.937,18.526-9.765,38.057-19.315,56.941-27.645,466.586-204.93,951.412-116.754,1413.69,85.16" transform="translate(320.178 449.177)" fill="none" stroke="#b7b7b7" opacity="0.5" stroke-linecap="round" stroke-miterlimit="10" stroke-width="2"/><path d="M-7.418,1001.231c323.982,29.727,646.529,82.719,953.852,178.578,202.776,63.188,403.685,144.758,599.138,231.5,219.435,97.439,437.505,204,655.217,307.037,453.374,214.48,927,436.213,1418.931,487.122,827.4,85.806,1527.571-403.04,2132.955-943.154,78.77-70.225,157.037-142.245,233.652-214.911C6313.9,736.631,6629.553,387.8,7024.622,170.811c18.454-10.125,37.841-20.105,56.726-28.794C7544.774-71.6,8029.024,11.333,8491.519,214.54" transform="translate(300.495 463.313)" fill="none" stroke="#b7b7b7" opacity="0.5" stroke-linecap="round" stroke-miterlimit="10" stroke-width="2"/><path d="M-7.7,989.6c333.317,29.368,666.562,75.467,984.585,167.736,204.14,59.239,406.558,137.29,603.087,221.589,219.076,94.064,436.428,198.54,653.063,300.646,452.872,213.4,922.4,437.577,1412.038,498.468,824.317,102.537,1534.249-354.356,2143.368-890.88,79.056-69.579,157.4-141.311,233.724-213.906C6350.457,760.826,6662.591,405.9,7055.219,180.932c18.31-10.483,37.625-20.823,56.366-29.871C7571.925-71.174,8055.529,6.3,8518.31,210.946" transform="translate(280.74 477.318)" fill="none" stroke="#b7b7b7" opacity="0.5" stroke-linecap="round" stroke-miterlimit="10" stroke-width="2"/><path d="M-7.977,978.026c342.652,29.368,686.667,68.573,1015.389,157.037,205.5,55.218,409.43,129.607,606.964,211.608,218.717,90.689,435.423,193.011,650.981,294.255,452.44,212.326,917.95,439.085,1405.144,509.813,821.014,119.2,1540.64-305.313,2153.923-838.462,79.271-68.932,157.683-140.378,233.724-212.972,329.08-314.073,637.625-675.179,1027.667-907.969,18.238-10.914,37.481-21.613,56.15-31.02,457.109-230.852,940-158.9,1403.135,47.176" transform="translate(260.915 491.113)" fill="none" stroke="#b7b7b7" opacity="0.5" stroke-linecap="round" stroke-miterlimit="10" stroke-width="2"/><path d="M-8.257,966.388c352.058,29.8,706.773,62.183,1046.265,146.41,206.654,51.34,412.087,122,610.77,201.555,218.358,87.314,434.49,187.7,648.827,287.937,451.651,211.177,913.57,440.808,1398.251,521.3,817.639,135.71,1546.887-255.912,2164.478-785.974,79.56-68.214,158.042-139.444,233.8-211.967,329.942-315.94,634.9-683.149,1022.354-923.838,18.167-11.273,37.267-22.331,55.865-32.168,453.8-239.253,935.972-173.049,1399.615,34.61" transform="translate(241.09 504.762)" fill="none" stroke="#b7b7b7" opacity="0.5" stroke-linecap="round" stroke-miterlimit="10" stroke-width="2"/><path d="M-8.538,954.7c361.464,30.661,726.734,56.079,1077.069,136,208.018,47.535,414.887,114.313,614.719,191.359,217.927,84.012,433.628,182.312,646.672,281.618,450.718,209.957,909.334,442.676,1391.43,532.862,813.977,152.226,1552.774-206.223,2175.1-733.34,79.774-67.5,158.329-138.511,233.8-210.962,330.876-317.879,632.1-691.191,1016.969-939.707,18.023-11.632,37.051-23.193,55.576-33.317,450.431-247.726,931.881-187.266,1396.1,21.9" transform="translate(221.194 518.249)" fill="none" stroke="#b7b7b7" opacity="0.5" stroke-linecap="round" stroke-miterlimit="10" stroke-width="2"/><path d="M-8.82,942.909c371.014,31.81,746.983,50.551,1108.017,125.73,209.239,43.585,417.544,106.558,618.525,181.091,217.5,80.708,432.766,177,644.518,275.3,449.855,208.808,905.169,444.829,1384.608,544.566,810.171,168.525,1558.519-156.247,2185.8-680.636,79.99-66.85,158.688-137.649,233.8-210.028C6498.4,859.042,6795.815,479.7,7178.1,223.356c17.879-12.063,36.764-23.911,55.218-34.466C7680.3-67.166,8161.036-12.666,8625.827,198.152" transform="translate(201.227 531.615)" fill="none" stroke="#b7b7b7" opacity="0.5" stroke-linecap="round" stroke-miterlimit="10" stroke-width="2"/><path d="M-9.1,931.067c380.636,33.318,767.089,45.381,1138.893,115.605,210.531,39.78,420.344,98.66,622.331,170.751,217.065,77.477,431.833,171.684,642.364,268.98,449.066,207.587,901.364,447.343,1377.858,556.342,806.51,184.467,1563.689-105.984,2196.575-627.787,80.205-66.06,158.975-136.716,233.8-209.095,333.03-321.972,626.567-707.347,1006.2-971.517,17.807-12.422,36.621-24.7,54.931-35.615,443.465-264.313,923.479-215.916,1388.988-3.447" transform="translate(181.26 544.822)" fill="none" stroke="#b7b7b7" opacity="0.5" stroke-linecap="round" stroke-miterlimit="10" stroke-width="2"/><path d="M-9.384,919.175c390.258,35.041,787.266,40.713,1169.841,105.553,211.608,35.9,422.857,90.761,626.064,160.34,216.634,74.174,430.9,166.3,640.282,262.733,448.276,206.438,897.342,449.784,1371.037,568.19,802.273,200.479,1569.073-55.649,2207.417-574.8,80.421-65.414,159.262-135.854,233.8-208.161,334.106-324.27,623.766-715.677,1000.74-987.6,17.736-12.781,36.405-25.491,54.644-36.764,439.875-272.427,919.028-230.277,1385.4-16.156" transform="translate(161.293 557.935)" fill="none" stroke="#b7b7b7" opacity="0.5" stroke-linecap="round" stroke-miterlimit="10" stroke-width="2"/><path d="M-9.667,907.236c400.023,37.123,807.443,36.477,1200.788,95.644,212.757,32.025,425.37,82.863,629.87,149.856,216.2,70.871,429.894,160.914,638.056,256.486,447.7,205.433,893.537,452.513,1364.359,580.181,797.821,216.347,1574.172-5.026,2218.259-521.8,80.708-64.768,159.622-134.993,233.868-207.228C6611,933.8,6895.924,536.365,7270.744,256.686c17.593-13.14,36.19-26.209,54.356-37.913C7761.313-61.7,8239.677-26.008,8706.909,189.908" transform="translate(141.255 570.879)" fill="none" stroke="#b7b7b7" opacity="0.5" stroke-linecap="round" stroke-miterlimit="10" stroke-width="2"/><path d="M-9.95,895.185c409.861,39.493,827.548,32.528,1231.664,85.878,213.978,28.219,427.955,74.892,633.6,139.3,215.845,67.568,429.032,155.529,635.973,250.239,447.056,204.5,889.731,455.241,1357.682,592.245,792.651,232.144,1579.485,45.811,2229.246-468.669a3031.039,3031.039,0,0,0,233.8-206.295C6648.778,958.948,6929.605,555.478,7301.7,268.044c17.521-13.5,35.974-27,54.068-39.062,432.48-288.439,909.979-259.286,1378.217-41.5" transform="translate(121.217 583.72)" fill="none" stroke="#b7b7b7" opacity="0.5" stroke-linecap="round" stroke-miterlimit="10" stroke-width="2"/><path d="M-10.234,883.072c419.913,42.077,847.725,29.153,1262.684,76.185,214.983,24.413,430.4,66.922,637.338,128.674,215.342,64.265,427.956,150.143,633.747,243.992,446.625,203.566,886.141,458.4,1351.075,604.451,787.625,247.51,1584.3,96.864,2240.16-415.461,81.139-63.332,160.2-133.2,233.868-205.361,337.984-331.378,614.791-740.952,984.154-1036,17.377-13.93,35.759-27.788,53.71-40.211C7815.176-56.994,8291.814-34.519,8761.129,185.06" transform="translate(101.109 596.479)" fill="none" stroke="#b7b7b7" opacity="0.5" stroke-linecap="round" stroke-miterlimit="10" stroke-width="2"/><path d="M-10.519,870.821c430.11,44.591,865.748,23.48,1293.7,66.706,217.209,21.972,432.838,58.952,641,117.975,214.911,60.962,427.022,144.758,631.665,237.817,446.122,202.7,882.55,461.7,1344.4,616.729,782.526,262.59,1589.035,147.989,2251.289-362.182,81.354-62.686,160.483-132.264,233.8-204.428,339.349-333.891,611.992-749.568,978.553-1052.3,17.3-14.289,35.544-28.578,53.423-41.359C7842.175-54.31,8317.881-38.656,8788.345,182.717" transform="translate(80.93 609.089)" fill="none" stroke="#b7b7b7" opacity="0.5" stroke-linecap="round" stroke-miterlimit="10" stroke-width="2"/><path d="M-10.8,858.144c440.521,47.678,885.853,21.039,1324.723,57.3,218.286,18.095,435.208,50.838,644.662,107.2,214.481,57.659,426.017,139.372,629.583,231.57,445.762,201.986,879.1,465.366,1337.791,629.152,777.069,277.453,1593.559,199.258,2262.348-308.76,81.57-61.967,160.77-131.4,233.8-203.566,340.712-336.476,609.189-758.185,972.952-1068.524,17.233-14.648,35.328-29.3,53.135-42.508,419.268-311.2,898.492-302.728,1367.375-79.847" transform="translate(60.75 621.982)" fill="none" stroke="#b7b7b7" opacity="0.5" stroke-linecap="round" stroke-miterlimit="10" stroke-width="2"/><path d="M-11.09,845.7c451.076,51.053,905.959,18.956,1355.814,48.109,219.219,14.146,437.505,42.724,648.324,96.29,214.05,54.356,424.868,133.915,627.357,225.395,445.475,201.268,875.8,469.171,1331.257,641.574,771.469,292.173,1598.084,250.742,2273.55-255.194,81.785-61.249,161.129-130.54,233.795-202.632,342.006-339.133,606.39-767.017,967.28-1084.9,17.089-15.079,35.113-30.086,52.848-43.729,415.246-318.6,893.608-317.448,1363.713-92.556" transform="translate(40.5 634.423)" fill="none" stroke="#b7b7b7" opacity="0.5" stroke-linecap="round" stroke-miterlimit="10" stroke-width="2"/><path d="M-11.376,833.133c461.7,54.643,926.064,17.377,1386.906,38.99,220.225,10.34,439.8,34.61,651.914,85.3,213.547,51.125,423.791,128.6,625.275,219.291,445.189,200.55,872.354,473.048,1324.652,654.212,765.509,306.605,1602.391,302.656,2284.822-201.628,82-60.6,161.346-129.679,233.8-201.771,343.37-341.862,603.59-775.921,961.536-1101.267,17.018-15.438,34.9-30.876,52.561-44.878,411.153-325.993,888.583-332.24,1360.123-105.337" transform="translate(20.25 646.777)" fill="none" stroke="#b7b7b7" opacity="0.5" stroke-linecap="round" stroke-miterlimit="10" stroke-width="2"/><path d="M-11.662,820.469c472.4,58.162,946.169,16.084,1417.926,29.942,449.425,13.212,870.487,104.117,1278.624,287.506,445.045,199.9,869.195,477.142,1318.189,666.849,871.636,368.214,1833.172,332.886,2529.891-348.827C6892.135,1104.6,7148.19,612.307,7541.033,292.2c408.712-333.1,883.484-347.1,1356.46-118.119" transform="translate(0 659.083)" fill="none" stroke="#b7b7b7" opacity="0.5"  stroke-linecap="round" stroke-miterlimit="10" stroke-width="2"/></g></g></svg>