<svg data-name="Layer 2" xmlns="http://www.w3.org/2000/svg" xmlns:xlink="http://www.w3.org/1999/xlink" ><defs><linearGradient id="a" x1="-238.98" y1="463.48" x2="2703.59" y2="463.48" gradientUnits="userSpaceOnUse"><stop offset="0" stop-color="#fff"/><stop offset="1" stop-color="#b7b7b7"/></linearGradient><linearGradient id="b" x1="-231.51" y1="475.54" x2="2722.19" y2="475.54" xlink:href="#a"/><linearGradient id="c" x1="-224.05" y1="487.59" x2="2740.79" y2="487.59" xlink:href="#a"/><linearGradient id="d" x1="-216.58" y1="499.65" x2="2759.39" y2="499.65" xlink:href="#a"/><linearGradient id="e" x1="-209.11" y1="511.71" x2="2777.99" y2="511.71" xlink:href="#a"/><linearGradient id="f" x1="-201.64" y1="523.77" x2="2796.59" y2="523.77" xlink:href="#a"/><linearGradient id="g" x1="-194.18" y1="535.82" x2="2815.18" y2="535.82" xlink:href="#a"/><linearGradient id="h" x1="-186.71" y1="547.88" x2="2833.78" y2="547.88" xlink:href="#a"/><linearGradient id="i" x1="-179.24" y1="559.94" x2="2852.38" y2="559.94" xlink:href="#a"/><linearGradient id="j" x1="-171.77" y1="572.01" x2="2870.98" y2="572.01" xlink:href="#a"/><linearGradient id="k" x1="-164.3" y1="584.07" x2="2889.58" y2="584.07" xlink:href="#a"/><linearGradient id="l" x1="-156.83" y1="596.13" x2="2908.18" y2="596.13" xlink:href="#a"/><linearGradient id="m" x1="-149.36" y1="608.2" x2="2926.78" y2="608.2" xlink:href="#a"/><linearGradient id="n" x1="-141.89" y1="620.27" x2="2945.38" y2="620.27" xlink:href="#a"/><linearGradient id="o" x1="-134.42" y1="632.34" x2="2963.99" y2="632.34" xlink:href="#a"/><linearGradient id="p" x1="-126.95" y1="644.42" x2="2982.59" y2="644.42" xlink:href="#a"/><linearGradient id="q" x1="-119.47" y1="656.5" x2="3001.19" y2="656.5" xlink:href="#a"/><linearGradient id="r" x1="-112" y1="668.59" x2="3019.79" y2="668.59" xlink:href="#a"/><linearGradient id="s" x1="-104.53" y1="680.68" x2="3038.39" y2="680.68" xlink:href="#a"/><linearGradient id="t" x1="-97.05" y1="692.77" x2="3057" y2="692.77" xlink:href="#a"/><linearGradient id="u" x1="-89.58" y1="704.85" x2="3075.6" y2="704.85" xlink:href="#a"/><linearGradient id="v" x1="-82.1" y1="716.93" x2="3094.2" y2="716.93" xlink:href="#a"/><linearGradient id="w" x1="-74.63" y1="729" x2="3112.81" y2="729" xlink:href="#a"/><linearGradient id="x" x1="-67.15" y1="741.06" x2="3131.41" y2="741.06" xlink:href="#a"/><linearGradient id="y" x1="-59.67" y1="753.09" x2="3150.02" y2="753.09" xlink:href="#a"/><linearGradient id="z" x1="-52.2" y1="764.96" x2="3168.62" y2="764.96" xlink:href="#a"/><linearGradient id="A" x1="-44.72" y1="772.45" x2="3187.23" y2="772.45" xlink:href="#a"/><linearGradient id="B" x1="-37.26" y1="786.53" x2="3205.83" y2="786.53" xlink:href="#a"/><linearGradient id="C" x1="-29.82" y1="799.45" x2="3224.43" y2="799.45" xlink:href="#a"/><linearGradient id="D" x1="-22.38" y1="811.88" x2="3243.04" y2="811.88" xlink:href="#a"/><linearGradient id="E" x1="-14.94" y1="824.14" x2="3261.64" y2="824.14" xlink:href="#a"/><linearGradient id="F" x1="-7.49" y1="836.32" x2="3280.25" y2="836.32" xlink:href="#a"/><linearGradient id="G" x1="-.05" y1="848.47" x2="3298.85" y2="848.47" xlink:href="#a"/><linearGradient id="H" x1="7.39" y1="860.58" x2="3317.45" y2="860.58" xlink:href="#a"/><linearGradient id="I" x1="14.83" y1="872.69" x2="3336.06" y2="872.69" xlink:href="#a"/><linearGradient id="J" x1="22.27" y1="884.78" x2="3354.66" y2="884.78" xlink:href="#a"/><linearGradient id="K" x1="29.71" y1="896.86" x2="3373.27" y2="896.86" xlink:href="#a"/><linearGradient id="L" x1="37.15" y1="908.94" x2="3391.87" y2="908.94" xlink:href="#a"/><linearGradient id="M" x1="44.59" y1="921.01" x2="3410.47" y2="921.01" xlink:href="#a"/><linearGradient id="N" x1="52.04" y1="933.08" x2="3429.08" y2="933.08" xlink:href="#a"/><linearGradient id="O" x1="59.48" y1="945.15" x2="3447.68" y2="945.15" xlink:href="#a"/><linearGradient id="P" x1="66.92" y1="957.21" x2="3466.28" y2="957.21" xlink:href="#a"/></defs><path d="M-238.7-320.82c910.48-620.07 2206.43 1725.87 2942.25 1672.13" fill="none" stroke-miterlimit="10" stroke="url(#a)"/><path d="M-231.24-278.6c900.67-596.53 2214 1658.44 2953.39 1608" fill="none" stroke-miterlimit="10" stroke="url(#b)"/><path d="M-223.78-236.38c890.87-573 2221.55 1591 2964.53 1543.83" fill="none" stroke-miterlimit="10" stroke="url(#c)"/><path d="M-216.31-194.16C664.74-743.6 2012.8 1329.43 2759.36 1285.52" fill="none" stroke-miterlimit="10" stroke="url(#d)"/><path d="M-208.85-151.94C662.4-677.84 2027.82 1304.23 2778 1263.59" fill="none" stroke-miterlimit="10" stroke="url(#e)"/><path d="M-201.39-109.72C660.06-612.08 2042.84 1279 2796.56 1241.66" fill="none" stroke-miterlimit="10" stroke="url(#f)"/><path d="M-193.93-67.5c851.64-478.82 2251.8 1321.31 3009.09 1287.23" fill="none" stroke-miterlimit="10" stroke="url(#g)"/><path d="M-186.47-25.28C655.37-480.55 2072.89 1228.61 2833.76 1197.8" fill="none" stroke-miterlimit="10" stroke="url(#h)"/><path d="M-179 16.94C653-414.79 2087.91 1203.4 2852.37 1175.88" fill="none" stroke-miterlimit="10" stroke="url(#i)"/><path d="M-171.55 59.16C650.68-349 2102.94 1178.19 2871 1154" fill="none" stroke-miterlimit="10" stroke="url(#j)"/><path d="M-164.09 101.38C648.33-283.26 2118 1153 2889.57 1132" fill="none" stroke-miterlimit="10" stroke="url(#k)"/><path d="M-156.63 143.6C646-217.5 2133 1127.78 2908.17 1110.09" fill="none" stroke-miterlimit="10" stroke="url(#l)"/><path d="M-149.17 185.82c792.82-337.56 2297.17 916.76 3076 902.34" fill="none" stroke-miterlimit="10" stroke="url(#m)"/><path d="M-141.7 228.05C641.3-86 2163 1077.37 2945.38 1066.23" fill="none" stroke-miterlimit="10" stroke="url(#n)"/><path d="M-134.24 270.27C639-20.21 2178.05 1052.16 2964 1044.3" fill="none" stroke-miterlimit="10" stroke="url(#o)"/><path d="M-126.78 312.49C636.61 45.55 2193.07 1027 2982.58 1022.37" fill="none" stroke-miterlimit="10" stroke="url(#p)"/><path d="M-119.32 354.71c753.59-243.39 2327.42 647 3120.5 645.73" fill="none" stroke-miterlimit="10" stroke="url(#q)"/><path d="M-111.86 396.93c743.79-219.85 2335 579.61 3131.65 581.58" fill="none" stroke-miterlimit="10" stroke="url(#r)"/><path d="M-104.4 439.15c734-196.31 2342.54 512.19 3142.79 517.43" fill="none" stroke-miterlimit="10" stroke="url(#s)"/><path d="M-96.94 481.37C627.24 308.6 2253.16 926.13 3057 934.65" fill="none" stroke-miterlimit="10" stroke="url(#t)"/><path d="M-89.48 523.59c714.37-149.22 2357.67 377.34 3165.07 389.13" fill="none" stroke-miterlimit="10" stroke="url(#u)"/><path d="M-82 565.81c704.57-125.68 2365.23 309.91 3176.22 325" fill="none" stroke-miterlimit="10" stroke="url(#v)"/><path d="M-74.55 608C620.2 505.89 2298.23 850.51 3112.8 868.86" fill="none" stroke-miterlimit="10" stroke="url(#w)"/><path d="M-67.09 650.25c685-78.59 2380.35 175.06 3198.49 196.68" fill="none" stroke-miterlimit="10" stroke="url(#x)"/><path d="M-59.63 692.47C615.52 637.42 2328.28 800.1 3150 825" fill="none" stroke-miterlimit="10" stroke="url(#y)"/><path d="M-52.17 734.69c665.34-31.51 2395.47 40.2 3220.77 68.39" fill="none" stroke-miterlimit="10" stroke="url(#z)"/><path d="M-44.71 776.91c655.54-8 2403-27.22 3231.92 4.24" fill="none" stroke-miterlimit="10" stroke="url(#A)"/><path d="M-37.25 819.13c645.73 15.58 2410.6-94.65 3243.06-59.91" fill="none" stroke-miterlimit="10" stroke="url(#B)"/><path d="M-29.79 861.35c635.93 39.12 2418.16-162.07 3254.2-124.06" fill="none" stroke-miterlimit="10" stroke="url(#C)"/><path d="M-22.33 903.57C603.8 966.23 2403.39 674.07 3243 715.36" fill="none" stroke-miterlimit="10" stroke="url(#D)"/><path d="M-14.87 945.79C601.45 1032 2418.42 648.86 3261.62 693.43" fill="none" stroke-miterlimit="10" stroke="url(#E)"/><path d="M-7.41 988c606.52 109.76 2440.85-364.34 3287.63-316.5" fill="none" stroke-miterlimit="10" stroke="url(#F)"/><path d="M.06 1030.23c596.7 133.29 2448.4-431.78 3298.76-380.66" fill="none" stroke-miterlimit="10" stroke="url(#G)"/><path d="M7.52 1072.45c586.9 156.84 2456-499.21 3309.9-444.81" fill="none" stroke-miterlimit="10" stroke="url(#H)"/><path d="M15 1114.67c577.09 180.38 2463.53-566.63 3321-509" fill="none" stroke-miterlimit="10" stroke="url(#I)"/><path d="M22.44 1156.89c567.29 203.92 2471.09-634.06 3332.19-573.11" fill="none" stroke-miterlimit="10" stroke="url(#J)"/><path d="M29.9 1199.12c557.49 227.46 2478.65-701.49 3343.33-637.27" fill="none" stroke-miterlimit="10" stroke="url(#K)"/><path d="M37.36 1241.34c547.68 251 2486.22-768.92 3354.47-701.42" fill="none" stroke-miterlimit="10" stroke="url(#L)"/><path d="M44.82 1283.56C582.7 1558.1 2538.6 447.21 3410.43 518" fill="none" stroke-miterlimit="10" stroke="url(#M)"/><path d="M52.28 1325.78C580.35 1623.87 2553.62 422 3429 496.06" fill="none" stroke-miterlimit="10" stroke="url(#N)"/><path d="M59.74 1368C578 1689.63 2568.65 396.8 3447.64 474.13" fill="none" stroke-miterlimit="10" stroke="url(#O)"/><path d="M67.2 1410.22c508.46 345.17 2516.47-1038.63 3399-958" fill="none"  stroke-miterlimit="10" stroke="url(#P)"/></svg>